<svg width="31" height="36" viewBox="0 0 31 36" fill="none" xmlns="http://www.w3.org/2000/svg">
<g clip-path="url(#clip0_15_151)">
<path fill-rule="evenodd" clip-rule="evenodd" d="M28.9944 2.18218C28.9867 1.91121 28.7605 1.69519 28.483 1.69519H7.51729C7.23987 1.69519 7.01358 1.91122 7.00592 2.18218L6.23886 30.1535C6.2363 30.2871 6.28744 30.4182 6.3846 30.5156C6.48048 30.6118 6.61215 30.6667 6.75023 30.6667H29.2502C29.3883 30.6667 29.52 30.6118 29.6159 30.5156C29.7117 30.4182 29.7642 30.2883 29.7616 30.1535L28.9944 2.18218ZM27.9845 2.69417L28.7234 29.6665H7.27425L8.01317 2.69417H27.9845ZM24.6479 6.35537V8.43823C24.6479 12.0246 21.6718 14.9314 18.0004 14.9314C14.3289 14.9314 11.3528 12.0244 11.3528 8.43823V6.35537C11.9485 6.14808 12.3755 5.59366 12.3755 4.94181C12.3755 4.11517 11.6877 3.44335 10.8414 3.44335C9.99513 3.44335 9.30734 4.11517 9.30734 4.94181C9.30734 5.59366 9.73433 6.14806 10.3301 6.35537V8.43823C10.3301 12.5764 13.7638 15.9307 18.0007 15.9307C22.2376 15.9307 25.6713 12.5767 25.6713 8.43823V6.35537C26.267 6.14808 26.694 5.59366 26.694 4.94181C26.694 4.11517 26.0062 3.44335 25.1599 3.44335C24.3136 3.44335 23.6258 4.11517 23.6258 4.94181C23.6258 5.59366 24.0528 6.14806 24.6486 6.35537H24.6479ZM10.8409 4.44233C11.1235 4.44233 11.3523 4.66585 11.3523 4.94181C11.3523 5.21778 11.1235 5.4413 10.8409 5.4413C10.5584 5.4413 10.3296 5.21778 10.3296 4.94181C10.3296 4.66585 10.5584 4.44233 10.8409 4.44233ZM25.1591 4.44233C25.4416 4.44233 25.6705 4.66585 25.6705 4.94181C25.6705 5.21778 25.4416 5.4413 25.1591 5.4413C24.8766 5.4413 24.6478 5.21778 24.6478 4.94181C24.6478 4.66585 24.8766 4.44233 25.1591 4.44233Z" fill="black"/>
</g>
<defs>
<clipPath id="clip0_15_151">
<rect width="36" height="39" fill="white" transform="translate(0 -3)"/>
</clipPath>
</defs>
</svg>
