<svg width="22" height="22" viewBox="0 0 22 22" fill="none" xmlns="http://www.w3.org/2000/svg">
<path fill-rule="evenodd" clip-rule="evenodd" d="M0.460257 0.460257C1.07395 -0.153419 2.06891 -0.153419 2.68261 0.460257L11 8.7777L19.3174 0.460257C19.9311 -0.153419 20.9261 -0.153419 21.5398 0.460257C22.1534 1.07395 22.1534 2.06891 21.5398 2.68261L13.2223 11L21.5398 19.3174C22.1534 19.9311 22.1534 20.9261 21.5398 21.5398C20.9261 22.1534 19.9311 22.1534 19.3174 21.5398L11 13.2223L2.68261 21.5398C2.06891 22.1534 1.07395 22.1534 0.460257 21.5398C-0.153419 20.9261 -0.153419 19.9311 0.460257 19.3174L8.7777 11L0.460257 2.68261C-0.153419 2.06891 -0.153419 1.07395 0.460257 0.460257Z" fill="black"/>
</svg>
