<svg width="12" height="12" viewBox="0 0 12 12" fill="none" xmlns="http://www.w3.org/2000/svg">
<g clip-path="url(#clip0_338_230)">
<path d="M0.963808 0.923015C1.27622 0.6239 1.78276 0.623888 2.09518 0.923015L5.86642 4.53378L9.63765 0.923015C9.95007 0.62389 10.4566 0.623885 10.769 0.923015C11.0814 1.22213 11.0814 1.70711 10.769 2.00624L6.99779 5.617L10.769 9.22774C11.0814 9.52688 11.0814 10.0119 10.769 10.311C10.4566 10.6101 9.95007 10.6101 9.63765 10.311L5.86642 6.70022L2.09518 10.311C1.78276 10.6101 1.27622 10.6101 0.96381 10.311C0.651384 10.0119 0.651389 9.52688 0.96381 9.22774L4.73505 5.617L0.96381 2.00624C0.651392 1.70711 0.651381 1.22215 0.963808 0.923015Z" fill="black"/>
</g>
<defs>
<clipPath id="clip0_338_230">
<rect width="12" height="12" fill="white"/>
</clipPath>
</defs>
</svg>
