<svg width="16" height="14" viewBox="0 0 16 14" fill="none" xmlns="http://www.w3.org/2000/svg">
<g clip-path="url(#clip0_338_219)">
<path fill-rule="evenodd" clip-rule="evenodd" d="M2.28578 7.58329H13.7144C14.0298 7.58329 14.2858 7.32196 14.2858 6.99996C14.2858 6.67796 14.0298 6.41663 13.7144 6.41663H2.28578C1.97036 6.41663 1.71436 6.67796 1.71436 6.99996C1.71436 7.32196 1.97036 7.58329 2.28578 7.58329Z" fill="black"/>
<path fill-rule="evenodd" clip-rule="evenodd" d="M8.57157 12.8333V1.16665C8.57157 0.844646 8.31557 0.583313 8.00014 0.583313C7.68471 0.583313 7.42871 0.844646 7.42871 1.16665V12.8333C7.42871 13.1553 7.68471 13.4166 8.00014 13.4166C8.31557 13.4166 8.57157 13.1553 8.57157 12.8333Z" fill="black"/>
</g>
<defs>
<clipPath id="clip0_338_219">
<rect width="16" height="14" fill="white"/>
</clipPath>
</defs>
</svg>
