<svg id="Слой_1" data-name="Слой 1" xmlns="http://www.w3.org/2000/svg" xmlns:xlink="http://www.w3.org/1999/xlink" viewBox="0 0 476.9 141.94">
  <defs>
    <style>
      .cls-1 {
        fill: none;
      }

      .cls-2 {
        clip-path: url(#clip-path);
      }

      .cls-3 {
        clip-path: url(#clip-path-2);
      }
    </style>
    <clipPath id="clip-path" transform="translate(-181.24 -211.11)">
      <rect class="cls-1" x="159.88" y="191.99" width="532.11" height="187.41"/>
    </clipPath>
    <clipPath id="clip-path-2" transform="translate(-181.24 -211.11)">
      <rect class="cls-1" x="159.88" y="191.99" width="532.11" height="187.41"/>
    </clipPath>
  </defs>
  <g class="cls-2">
    <g class="cls-3">
      <path d="M223.72,216.69a19.52,19.52,0,0,0-6-4.06,18.46,18.46,0,0,0-7.51-1.52h-29v2h6.69V351h-6.69v2h24.94v-2h-6.69V289.78h10.74a18.3,18.3,0,0,0,7.51-1.52,19.5,19.5,0,0,0,6-4.05,19.08,19.08,0,0,0,4.05-6.09,18.47,18.47,0,0,0,1.53-7.4V230.17a18.29,18.29,0,0,0-1.53-7.5,19.38,19.38,0,0,0-4.05-6m-5.78,63.36a7.62,7.62,0,0,1-7.71,7.71H199.49V213.14h10.74a7.62,7.62,0,0,1,7.71,7.7Z" transform="translate(-181.24 -211.11)"/>
      <path d="M342.84,348a3.11,3.11,0,0,1-.81,2.13,2.83,2.83,0,0,1-2.23.91,1.43,1.43,0,0,1-1.62-1.62V306.82a18.51,18.51,0,0,0-3.55-11.16,19.15,19.15,0,0,0-9.23-6.89,19.15,19.15,0,0,0,9.23-6.89,18.51,18.51,0,0,0,3.55-11.16V230.17a18.45,18.45,0,0,0-1.52-7.5,19.24,19.24,0,0,0-10-10,18.45,18.45,0,0,0-7.5-1.52h-29v2h6.69V351h-6.69v2h24.94v-2h-6.69V289.78h10.75a7.62,7.62,0,0,1,7.7,7.71v45.62a9.74,9.74,0,0,0,2.84,7,9.22,9.22,0,0,0,6.9,2.94h3.65a4.52,4.52,0,0,0,4.66-4.67v-8.72h-2Zm-23.72-60.22H308.37V213.14h10.75a7.62,7.62,0,0,1,7.7,7.7v59.21a7.62,7.62,0,0,1-7.7,7.71" transform="translate(-181.24 -211.11)"/>
      <path d="M441.49,216.69a19.41,19.41,0,0,0-13.69-5.58h-3a18.63,18.63,0,0,0-7.4,1.52,19.11,19.11,0,0,0-6.09,4.06,19.38,19.38,0,0,0-4,6,18.45,18.45,0,0,0-1.52,7.5V334a19,19,0,0,0,19.06,19.06h3a18.91,18.91,0,0,0,17.74-11.66,18.5,18.5,0,0,0,1.52-7.4V230.17a18.29,18.29,0,0,0-1.52-7.5,19.55,19.55,0,0,0-4.05-6m-6,126.62a7.45,7.45,0,0,1-2.24,5.48A7.19,7.19,0,0,1,428,351h-3.24a7.62,7.62,0,0,1-7.71-7.71V220.84a7.62,7.62,0,0,1,7.71-7.7H428a7.19,7.19,0,0,1,5.27,2.23,7.44,7.44,0,0,1,2.24,5.47Z" transform="translate(-181.24 -211.11)"/>
      <path d="M550.37,216.69a19.52,19.52,0,0,0-6-4.06,18.5,18.5,0,0,0-7.51-1.52h-29v2h6.69V351h-6.69v2h24.94v-2h-6.69V289.78h10.74a18.33,18.33,0,0,0,7.51-1.52,19.5,19.5,0,0,0,6-4.05,19.08,19.08,0,0,0,4-6.09,18.46,18.46,0,0,0,1.52-7.4V230.17a18.29,18.29,0,0,0-1.52-7.5,19.38,19.38,0,0,0-4-6m-5.78,63.36a7.62,7.62,0,0,1-7.71,7.71H526.14V213.14h10.74a7.62,7.62,0,0,1,7.71,7.7Z" transform="translate(-181.24 -211.11)"/>
      <path d="M630.36,215.37a7.41,7.41,0,0,1,5.47-2.23h3a12.44,12.44,0,0,1,5.68,1.22,15.08,15.08,0,0,1,4.26,3.14,17.92,17.92,0,0,1,3,4.36,33.19,33.19,0,0,1,2,5.06,55.55,55.55,0,0,1,2,14h2.23V213.14h-2.23v.2a2.61,2.61,0,0,1-.92,2,2.87,2.87,0,0,1-1.92.81,3.63,3.63,0,0,1-1.83-.61,18.08,18.08,0,0,0-12.37-4.46h-3a18.67,18.67,0,0,0-7.4,1.52,19.06,19.06,0,0,0-6.08,4.06,19.58,19.58,0,0,0-4.06,6,18.45,18.45,0,0,0-1.52,7.5v28.39A18.51,18.51,0,0,0,624.88,274l18.45,13.38a7,7,0,0,1,3.25,6.08v49.88a7.48,7.48,0,0,1-2.23,5.48,7.21,7.21,0,0,1-5.27,2.23H636c-4.32,0-7.64-1.45-9.93-4.36A29.21,29.21,0,0,1,621,337a58.66,58.66,0,0,1-2.23-13.79h-2V351h2v-.2a2.58,2.58,0,0,1,.91-2,2.87,2.87,0,0,1,1.93-.81,3,3,0,0,1,1.82.6,19,19,0,0,0,12.37,4.47h3a18.94,18.94,0,0,0,17.75-11.66,18.67,18.67,0,0,0,1.52-7.4V293.43a18.49,18.49,0,0,0-2.13-8.72,20.12,20.12,0,0,0-6-6.89l-18.65-13.18a7.2,7.2,0,0,1-3.24-6.29V220.84a7.43,7.43,0,0,1,2.23-5.47" transform="translate(-181.24 -211.11)"/>
    </g>
  </g>
</svg>
